<?xml version="1.0" encoding="UTF-8"?>
<!DOCTYPE svg PUBLIC "-//W3C//DTD SVG 1.1//EN" "http://www.w3.org/Graphics/SVG/1.1/DTD/svg11.dtd">
<!-- Creator: CorelDRAW 2020 (64-Bit) -->
<svg xmlns="http://www.w3.org/2000/svg" xml:space="preserve" width="900px" height="261px" version="1.1" style="shape-rendering:geometricPrecision; text-rendering:geometricPrecision; image-rendering:optimizeQuality; fill-rule:evenodd; clip-rule:evenodd" viewBox="0 0 1850 260.62" xmlns:xlink="http://www.w3.org/1999/xlink" xmlns:xodm="http://www.corel.com/coreldraw/odm/2003">
 <defs>
  <style type="text/css">
   <![CDATA[
    .fil1 {fill:#1C79BF}
    .fil0 {fill:#4285F4}
    .fil3 {fill:#CC2D2F}
    .fil2 {fill:#F13B3E}
    .fil4 {fill:#4285F4;fill-rule:nonzero}
    .fil5 {fill:#F13B3E;fill-rule:nonzero}
   ]]>
  </style>
 </defs>
 <g id="Layer_x0020_1">
  <metadata id="CorelCorpID_0Corel-Layer"/>
  <g id="_2519202503584">
   <g>
    <g>
     <g>
      <g>
       <polygon class="fil0" points="184.5,85.77 234.17,0 369.74,233.99 322.75,233.99 234.17,81.1 207.99,126.31 "/>
       <polygon class="fil1" points="208.37,125.66 189.35,77.38 184.88,85.11 "/>
       <polygon class="fil2" points="0,233.99 135.57,0 271.14,233.99 224.15,233.99 135.57,81.1 46.99,233.99 "/>
       <polygon class="fil2" points="0,233.99 23.37,193.37 168.9,193.47 145.58,233.99 "/>
       <polygon class="fil0" points="369.74,233.99 346.37,193.37 200.68,193.47 224.15,233.99 "/>
       <polygon class="fil0" points="98.6,233.99 155.64,135.53 179.14,176.08 145.58,233.99 "/>
       <polygon class="fil3" points="98.6,233.99 114.51,193.43 122.09,193.43 "/>
      </g>
     </g>
     <polygon class="fil3" points="200.68,193.47 244.35,187.75 247.64,193.43 "/>
    </g>
   </g>
   <g>
    <g>
     <path class="fil4" d="M904.28 197.82c-4.28,0 -7.57,1.59 -9.92,4.81 -2.34,3.2 -3.51,7.68 -3.51,13.41 0,11.93 4.47,17.9 13.43,17.9 3.74,0 8.3,-0.94 13.63,-2.82l0 9.52c-4.38,1.83 -9.29,2.74 -14.7,2.74 -7.78,0 -13.72,-2.36 -17.85,-7.08 -4.12,-4.72 -6.18,-11.5 -6.18,-20.33 0,-5.56 1.01,-10.43 3.04,-14.62 2.02,-4.18 4.93,-7.39 8.71,-9.63 3.8,-2.24 8.25,-3.35 13.35,-3.35 5.19,0 10.4,1.26 15.65,3.77l-3.66 9.22c-2,-0.95 -4.01,-1.77 -6.04,-2.48 -2.02,-0.71 -4.01,-1.06 -5.95,-1.06zm34.55 24.28c0,4.05 0.66,7.11 1.98,9.18 1.34,2.07 3.5,3.11 6.5,3.11 2.97,0 5.11,-1.02 6.42,-3.08 1.3,-2.07 1.95,-5.14 1.95,-9.21 0,-4.05 -0.65,-7.08 -1.98,-9.11 -1.31,-2.02 -3.47,-3.03 -6.47,-3.03 -2.97,0 -5.12,1.01 -6.43,3.02 -1.32,2.01 -1.97,5.05 -1.97,9.12zm28.26 0.02c0,6.66 -1.75,11.87 -5.26,15.63 -3.5,3.76 -8.4,5.63 -14.67,5.63 -3.92,0 -7.38,-0.86 -10.39,-2.58 -3,-1.71 -5.3,-4.19 -6.91,-7.41 -1.61,-3.22 -2.41,-6.98 -2.41,-11.27 0,-6.69 1.73,-11.89 5.22,-15.6 3.5,-3.71 8.39,-5.56 14.71,-5.56 3.93,0 7.39,0.85 10.4,2.56 2.99,1.72 5.29,4.16 6.9,7.36 1.61,3.2 2.41,6.95 2.41,11.24zm48.5 20.51l-11.17 0 0 -23.89c0,-2.95 -0.53,-5.17 -1.58,-6.65 -1.04,-1.47 -2.71,-2.21 -5.01,-2.21 -3.11,0 -5.37,1.04 -6.75,3.12 -1.39,2.09 -2.09,5.55 -2.09,10.39l0 19.24 -11.15 0 0 -40.92 8.52 0 1.5 5.25 0.62 0c1.25,-1.97 2.96,-3.47 5.15,-4.48 2.17,-1.02 4.66,-1.52 7.43,-1.52 4.76,0 8.37,1.29 10.83,3.86 2.46,2.58 3.7,6.29 3.7,11.15l0 26.66zm50.75 0l-11.17 0 0 -23.89c0,-2.95 -0.52,-5.17 -1.57,-6.65 -1.05,-1.47 -2.71,-2.21 -5.01,-2.21 -3.11,0 -5.37,1.04 -6.76,3.12 -1.38,2.09 -2.09,5.55 -2.09,10.39l0 19.24 -11.15 0 0 -40.92 8.52 0 1.5 5.25 0.62 0c1.25,-1.97 2.96,-3.47 5.15,-4.48 2.17,-1.02 4.66,-1.52 7.43,-1.52 4.76,0 8.37,1.29 10.83,3.86 2.46,2.58 3.7,6.29 3.7,11.15l0 26.66zm29.95 -33.72c-2.37,0 -4.22,0.75 -5.57,2.25 -1.33,1.5 -2.11,3.62 -2.31,6.37l15.68 0c-0.05,-2.75 -0.76,-4.87 -2.16,-6.37 -1.39,-1.5 -3.27,-2.25 -5.64,-2.25zm1.58 34.47c-6.6,0 -11.74,-1.82 -15.45,-5.45 -3.71,-3.64 -5.56,-8.79 -5.56,-15.44 0,-6.86 1.71,-12.16 5.13,-15.91 3.44,-3.74 8.17,-5.62 14.23,-5.62 5.78,0 10.28,1.65 13.5,4.94 3.22,3.3 4.84,7.83 4.84,13.64l0 5.41 -26.4 0c0.13,3.17 1.06,5.65 2.81,7.44 1.76,1.79 4.24,2.67 7.41,2.67 2.46,0 4.8,-0.26 6.99,-0.77 2.19,-0.51 4.49,-1.32 6.89,-2.45l0 8.65c-1.96,0.97 -4.05,1.71 -6.27,2.18 -2.21,0.48 -4.92,0.71 -8.12,0.71zm43.86 0c-12.73,0 -19.09,-6.99 -19.09,-20.97 0,-6.96 1.72,-12.27 5.18,-15.94 3.48,-3.67 8.44,-5.51 14.89,-5.51 4.74,0 8.98,0.93 12.74,2.78l-3.29 8.63c-1.76,-0.7 -3.39,-1.29 -4.9,-1.74 -1.51,-0.45 -3.02,-0.67 -4.54,-0.67 -5.8,0 -8.7,4.12 -8.7,12.36 0,8 2.9,11.99 8.7,11.99 2.14,0 4.13,-0.28 5.96,-0.86 1.83,-0.57 3.66,-1.47 5.49,-2.68l0 9.57c-1.8,1.15 -3.63,1.95 -5.47,2.38 -1.84,0.44 -4.16,0.66 -6.97,0.66zm40.65 -8.92c1.97,0 4.3,-0.42 7.04,-1.28l0 8.33c-2.79,1.25 -6.2,1.87 -10.25,1.87 -4.47,0 -7.71,-1.12 -9.75,-3.38 -2.04,-2.26 -3.06,-5.65 -3.06,-10.16l0 -19.73 -5.33 0 0 -4.74 6.14 -3.73 3.22 -8.63 7.14 0 0 8.7 11.45 0 0 8.4 -11.45 0 0 19.71c0,1.58 0.44,2.76 1.33,3.51 0.89,0.76 2.06,1.13 3.52,1.13zm16.33 -43.34c0,-3.63 2.03,-5.45 6.07,-5.45 4.05,0 6.07,1.82 6.07,5.45 0,1.74 -0.5,3.09 -1.51,4.05 -1.01,0.96 -2.53,1.45 -4.56,1.45 -4.04,0 -6.07,-1.84 -6.07,-5.5zm11.63 51.51l-11.15 0 0 -40.92 11.15 0 0 40.92zm50.97 0l-11.17 0 0 -23.89c0,-2.95 -0.53,-5.17 -1.58,-6.65 -1.05,-1.47 -2.71,-2.21 -5.01,-2.21 -3.11,0 -5.37,1.04 -6.75,3.12 -1.39,2.09 -2.09,5.55 -2.09,10.39l0 19.24 -11.15 0 0 -40.92 8.52 0 1.49 5.25 0.63 0c1.25,-1.97 2.96,-3.47 5.14,-4.48 2.18,-1.02 4.66,-1.52 7.44,-1.52 4.76,0 8.37,1.29 10.83,3.86 2.46,2.58 3.7,6.29 3.7,11.15l0 26.66zm48.61 -40.92l0 5.7 -6.41 1.65c1.18,1.82 1.77,3.87 1.77,6.14 0,4.39 -1.54,7.81 -4.6,10.27 -3.06,2.45 -7.32,3.67 -12.76,3.67l-2.01 -0.11 -1.65 -0.17c-1.15,0.87 -1.72,1.85 -1.72,2.92 0,1.61 2.05,2.41 6.15,2.41l6.95 0c4.49,0 7.91,0.96 10.27,2.89 2.35,1.93 3.54,4.75 3.54,8.48 0,4.78 -2,8.48 -5.99,11.12 -3.99,2.63 -9.72,3.94 -17.18,3.94 -5.71,0 -10.07,-0.99 -13.08,-2.97 -3.03,-1.99 -4.52,-4.77 -4.52,-8.36 0,-2.46 0.76,-4.52 2.29,-6.17 1.54,-1.66 3.8,-2.85 6.77,-3.55 -1.14,-0.48 -2.14,-1.28 -2.99,-2.39 -0.85,-1.12 -1.29,-2.29 -1.29,-3.54 0,-1.56 0.46,-2.86 1.36,-3.9 0.9,-1.03 2.21,-2.05 3.91,-3.04 -2.15,-0.94 -3.85,-2.43 -5.1,-4.48 -1.26,-2.05 -1.88,-4.46 -1.88,-7.24 0,-4.46 1.45,-7.92 4.34,-10.36 2.92,-2.43 7.06,-3.66 12.46,-3.66 1.14,0 2.5,0.1 4.07,0.3 1.58,0.2 2.59,0.35 3.02,0.45l14.28 0zm-31.59 46.71c0,1.53 0.74,2.75 2.21,3.62 1.49,0.87 3.55,1.31 6.21,1.31 4,0 7.13,-0.55 9.41,-1.65 2.27,-1.08 3.41,-2.58 3.41,-4.48 0,-1.54 -0.68,-2.6 -2.01,-3.19 -1.35,-0.58 -3.43,-0.87 -6.24,-0.87l-5.78 0c-2.05,0 -3.76,0.49 -5.14,1.45 -1.38,0.96 -2.07,2.22 -2.07,3.81zm4.06 -33.32c0,2.23 0.51,3.99 1.52,5.29 1.02,1.28 2.57,1.93 4.64,1.93 2.1,0 3.63,-0.65 4.61,-1.93 0.97,-1.3 1.46,-3.06 1.46,-5.29 0,-4.93 -2.02,-7.39 -6.07,-7.39 -4.11,0 -6.16,2.46 -6.16,7.39zm94.15 27.53l-11.34 0 0 -44.06 -14.53 0 0 -9.45 40.4 0 0 9.45 -14.53 0 0 44.06zm40.35 -33.72c-2.37,0 -4.22,0.75 -5.57,2.25 -1.34,1.5 -2.11,3.62 -2.31,6.37l15.68 0c-0.05,-2.75 -0.77,-4.87 -2.17,-6.37 -1.38,-1.5 -3.27,-2.25 -5.63,-2.25zm1.57 34.47c-6.59,0 -11.74,-1.82 -15.45,-5.45 -3.71,-3.64 -5.55,-8.79 -5.55,-15.44 0,-6.86 1.71,-12.16 5.13,-15.91 3.43,-3.74 8.17,-5.62 14.23,-5.62 5.78,0 10.28,1.65 13.5,4.94 3.22,3.3 4.83,7.83 4.83,13.64l0 5.41 -26.39 0c0.12,3.17 1.06,5.65 2.81,7.44 1.76,1.79 4.23,2.67 7.41,2.67 2.46,0 4.79,-0.26 6.99,-0.77 2.19,-0.51 4.49,-1.32 6.89,-2.45l0 8.65c-1.97,0.97 -4.05,1.71 -6.28,2.18 -2.21,0.48 -4.92,0.71 -8.12,0.71zm43.86 0c-12.73,0 -19.08,-6.99 -19.08,-20.97 0,-6.96 1.72,-12.27 5.18,-15.94 3.47,-3.67 8.43,-5.51 14.89,-5.51 4.73,0 8.98,0.93 12.74,2.78l-3.3 8.63c-1.76,-0.7 -3.38,-1.29 -4.89,-1.74 -1.52,-0.45 -3.03,-0.67 -4.54,-0.67 -5.81,0 -8.7,4.12 -8.7,12.36 0,8 2.89,11.99 8.7,11.99 2.14,0 4.12,-0.28 5.96,-0.86 1.82,-0.57 3.66,-1.47 5.48,-2.68l0 9.57c-1.79,1.15 -3.62,1.95 -5.47,2.38 -1.83,0.44 -4.16,0.66 -6.97,0.66zm61.19 -0.75l-11.17 0 0 -23.89c0,-5.91 -2.19,-8.86 -6.59,-8.86 -3.11,0 -5.37,1.06 -6.75,3.19 -1.39,2.12 -2.09,5.56 -2.09,10.32l0 19.24 -11.15 0 0 -56.96 11.15 0 0 11.62c0,0.9 -0.09,3.02 -0.25,6.37l-0.26 3.3 0.59 0c2.48,-4 6.43,-6 11.85,-6 4.8,0 8.44,1.29 10.93,3.88 2.49,2.58 3.74,6.29 3.74,11.13l0 26.66zm50.75 0l-11.17 0 0 -23.89c0,-2.95 -0.52,-5.17 -1.57,-6.65 -1.05,-1.47 -2.71,-2.21 -5.01,-2.21 -3.11,0 -5.37,1.04 -6.76,3.12 -1.39,2.09 -2.09,5.55 -2.09,10.39l0 19.24 -11.15 0 0 -40.92 8.52 0 1.5 5.25 0.62 0c1.25,-1.97 2.96,-3.47 5.15,-4.48 2.17,-1.02 4.66,-1.52 7.43,-1.52 4.76,0 8.37,1.29 10.83,3.86 2.46,2.58 3.7,6.29 3.7,11.15l0 26.66zm21.9 -20.53c0,4.05 0.66,7.11 1.98,9.18 1.34,2.07 3.5,3.11 6.5,3.11 2.97,0 5.11,-1.02 6.42,-3.08 1.3,-2.07 1.95,-5.14 1.95,-9.21 0,-4.05 -0.65,-7.08 -1.98,-9.11 -1.31,-2.02 -3.47,-3.03 -6.47,-3.03 -2.97,0 -5.12,1.01 -6.43,3.02 -1.33,2.01 -1.97,5.05 -1.97,9.12zm28.26 0.02c0,6.66 -1.75,11.87 -5.26,15.63 -3.5,3.76 -8.4,5.63 -14.67,5.63 -3.92,0 -7.38,-0.86 -10.4,-2.58 -2.99,-1.71 -5.29,-4.19 -6.9,-7.41 -1.62,-3.22 -2.41,-6.98 -2.41,-11.27 0,-6.69 1.73,-11.89 5.22,-15.6 3.49,-3.71 8.39,-5.56 14.71,-5.56 3.92,0 7.38,0.85 10.4,2.56 2.99,1.72 5.29,4.16 6.9,7.36 1.61,3.2 2.41,6.95 2.41,11.24zm21.9 20.51l-11.15 0 0 -56.96 11.15 0 0 56.96zm22.11 -20.53c0,4.05 0.66,7.11 1.99,9.18 1.33,2.07 3.49,3.11 6.49,3.11 2.97,0 5.11,-1.02 6.42,-3.08 1.3,-2.07 1.95,-5.14 1.95,-9.21 0,-4.05 -0.65,-7.08 -1.97,-9.11 -1.31,-2.02 -3.48,-3.03 -6.47,-3.03 -2.98,0 -5.13,1.01 -6.44,3.02 -1.32,2.01 -1.97,5.05 -1.97,9.12zm28.27 0.02c0,6.66 -1.75,11.87 -5.26,15.63 -3.51,3.76 -8.41,5.63 -14.68,5.63 -3.92,0 -7.38,-0.86 -10.39,-2.58 -3,-1.71 -5.3,-4.19 -6.91,-7.41 -1.61,-3.22 -2.41,-6.98 -2.41,-11.27 0,-6.69 1.74,-11.89 5.22,-15.6 3.5,-3.71 8.4,-5.56 14.72,-5.56 3.92,0 7.38,0.85 10.39,2.56 3,1.72 5.3,4.16 6.91,7.36 1.61,3.2 2.41,6.95 2.41,11.24zm46.35 -20.41l0 5.7 -6.41 1.65c1.18,1.82 1.77,3.87 1.77,6.14 0,4.39 -1.54,7.81 -4.6,10.27 -3.06,2.45 -7.32,3.67 -12.75,3.67l-2.02 -0.11 -1.64 -0.17c-1.15,0.87 -1.73,1.85 -1.73,2.92 0,1.61 2.05,2.41 6.15,2.41l6.95 0c4.49,0 7.91,0.96 10.27,2.89 2.35,1.93 3.54,4.75 3.54,8.48 0,4.78 -2,8.48 -5.99,11.12 -3.99,2.63 -9.71,3.94 -17.18,3.94 -5.71,0 -10.07,-0.99 -13.08,-2.97 -3.02,-1.99 -4.52,-4.77 -4.52,-8.36 0,-2.46 0.76,-4.52 2.29,-6.17 1.54,-1.66 3.8,-2.85 6.77,-3.55 -1.14,-0.48 -2.14,-1.28 -2.99,-2.39 -0.85,-1.12 -1.29,-2.29 -1.29,-3.54 0,-1.56 0.46,-2.86 1.36,-3.9 0.9,-1.03 2.21,-2.05 3.91,-3.04 -2.15,-0.94 -3.85,-2.43 -5.09,-4.48 -1.27,-2.05 -1.89,-4.46 -1.89,-7.24 0,-4.46 1.45,-7.92 4.35,-10.36 2.91,-2.43 7.05,-3.66 12.45,-3.66 1.14,0 2.5,0.1 4.07,0.3 1.58,0.2 2.59,0.35 3.02,0.45l14.28 0zm-31.59 46.71c0,1.53 0.74,2.75 2.21,3.62 1.49,0.87 3.55,1.31 6.21,1.31 4,0 7.13,-0.55 9.41,-1.65 2.27,-1.08 3.41,-2.58 3.41,-4.48 0,-1.54 -0.68,-2.6 -2.01,-3.19 -1.35,-0.58 -3.43,-0.87 -6.24,-0.87l-5.78 0c-2.05,0 -3.76,0.49 -5.13,1.45 -1.39,0.96 -2.08,2.22 -2.08,3.81zm4.06 -33.32c0,2.23 0.51,3.99 1.53,5.29 1.01,1.28 2.56,1.93 4.63,1.93 2.1,0 3.63,-0.65 4.61,-1.93 0.97,-1.3 1.46,-3.06 1.46,-5.29 0,-4.93 -2.02,-7.39 -6.07,-7.39 -4.11,0 -6.16,2.46 -6.16,7.39zm35.29 -23.98c0,-3.63 2.02,-5.45 6.07,-5.45 4.05,0 6.07,1.82 6.07,5.45 0,1.74 -0.5,3.09 -1.51,4.05 -1.01,0.96 -2.54,1.45 -4.56,1.45 -4.05,0 -6.07,-1.84 -6.07,-5.5zm11.63 51.51l-11.16 0 0 -40.92 11.16 0 0 40.92zm30.16 -33.72c-2.37,0 -4.22,0.75 -5.57,2.25 -1.33,1.5 -2.11,3.62 -2.31,6.37l15.68 0c-0.05,-2.75 -0.76,-4.87 -2.16,-6.37 -1.39,-1.5 -3.27,-2.25 -5.64,-2.25zm1.58 34.47c-6.6,0 -11.74,-1.82 -15.45,-5.45 -3.71,-3.64 -5.56,-8.79 -5.56,-15.44 0,-6.86 1.71,-12.16 5.13,-15.91 3.44,-3.74 8.17,-5.62 14.23,-5.62 5.78,0 10.28,1.65 13.5,4.94 3.23,3.3 4.84,7.83 4.84,13.64l0 5.41 -26.4 0c0.13,3.17 1.06,5.65 2.81,7.44 1.76,1.79 4.24,2.67 7.41,2.67 2.46,0 4.8,-0.26 7,-0.77 2.18,-0.51 4.48,-1.32 6.88,-2.45l0 8.65c-1.96,0.97 -4.05,1.71 -6.27,2.18 -2.21,0.48 -4.92,0.71 -8.12,0.71zm55.79 -12.89c0,4.2 -1.45,7.4 -4.37,9.6 -2.92,2.2 -7.28,3.29 -13.08,3.29 -2.98,0 -5.51,-0.2 -7.61,-0.6 -2.1,-0.41 -4.06,-0.99 -5.9,-1.78l0 -9.22c2.08,0.97 4.41,1.79 7.01,2.45 2.6,0.66 4.89,0.98 6.86,0.98 4.06,0 6.08,-1.17 6.08,-3.52 0,-0.87 -0.27,-1.58 -0.81,-2.13 -0.54,-0.55 -1.46,-1.18 -2.77,-1.88 -1.33,-0.68 -3.08,-1.5 -5.27,-2.43 -3.15,-1.31 -5.46,-2.54 -6.94,-3.66 -1.47,-1.13 -2.54,-2.41 -3.22,-3.86 -0.67,-1.46 -1,-3.25 -1,-5.37 0,-3.63 1.4,-6.44 4.22,-8.42 2.81,-1.99 6.81,-2.98 11.98,-2.98 4.94,0 9.72,1.08 14.38,3.21l-3.36 8.04c-2.05,-0.88 -3.96,-1.6 -5.75,-2.17 -1.77,-0.56 -3.59,-0.83 -5.44,-0.83 -3.3,0 -4.95,0.88 -4.95,2.67 0,1 0.54,1.87 1.6,2.6 1.06,0.74 3.38,1.82 6.97,3.26 3.18,1.3 5.53,2.51 7.02,3.63 1.49,1.13 2.58,2.42 3.3,3.88 0.7,1.47 1.05,3.22 1.05,5.24z"/>
    </g>
    <g>
     <g>
      <path class="fil5" d="M464.02 162.17l-45.18 0 61.39 -162.17 46.34 0 61.39 162.17 -45.17 0 -10.43 -28.95 -57.92 0 -10.42 28.95zm20.85 -59.07l37.07 0 -18.54 -54.44 -18.53 54.44zm253.69 -31.28l-32.44 57.92 -32.43 0 -32.44 -57.92 0 90.35 -41.71 0 0 -162.17 44.02 0 46.34 85.72 46.34 -85.72 44.02 0 0 162.17 -41.7 0 0 -90.35zm231.06 -71.82l27.8 104.26 24.33 -104.26 45.17 0 -44.01 162.17 -44.02 0 -27.8 -100.77 -27.8 100.77 -44.03 0 -44.01 -162.17 45.18 0 24.32 104.26 27.8 -104.26 37.07 0zm154.07 66.03c-6.18,0 -9.27,3.09 -9.27,9.27l0 12.74 39.38 0 0 -12.74c0,-6.18 -3.08,-9.27 -9.26,-9.27l-20.85 0zm66.03 93.83c-29.81,3.09 -56.84,4.63 -81.09,4.63 -10.51,0 -18.92,-3.16 -25.25,-9.5 -6.34,-6.33 -9.5,-14.75 -9.5,-25.25l0 -55.6c0,-11.59 3.28,-20.66 9.84,-27.23 6.57,-6.56 15.64,-9.84 27.23,-9.84l46.33 0c11.59,0 20.66,3.28 27.22,9.84 6.57,6.57 9.85,15.64 9.85,27.23l0 42.86 -79.93 0 0 9.26c0,2.32 0.77,4.25 2.32,5.8 1.54,1.54 3.47,2.31 5.79,2.31 15.29,0 37.69,-1.15 67.19,-3.47l0 28.96zm107.73 -83.4c0,-2.32 -0.78,-4.25 -2.32,-5.8 -1.54,-1.54 -3.47,-2.32 -5.79,-2.32l-5.8 0c-6.48,0 -12.08,0.31 -16.79,0.93 -4.71,0.62 -8.38,1.08 -11.01,1.39l0 60.24 32.44 0c6.18,0 9.27,-3.09 9.27,-9.27l0 -45.17zm-41.71 -34.76c14.99,-3.09 28.11,-4.63 39.39,-4.63l8.11 0c10.5,0 18.92,3.16 25.25,9.5 6.33,6.33 9.5,14.75 9.5,25.25l0 53.29c0,11.58 -3.28,20.66 -9.85,27.22 -6.56,6.56 -15.63,9.84 -27.22,9.84l-85.72 0 0 -162.17 40.54 0 0 41.7zm188.82 120.47c-14.98,1.55 -29.65,2.32 -44.02,2.32 -10.5,0 -18.92,-3.16 -25.25,-9.5 -6.33,-6.33 -9.5,-14.75 -9.5,-25.25l0 -59.08 -13.9 0 0 -31.27 13.9 0 4.64 -27.8 35.9 0 0 27.8 28.96 0 0 31.27 -28.96 0 0 53.29c0,2.31 0.78,4.25 2.32,5.79 1.55,1.55 3.48,2.32 5.79,2.32l30.12 0 0 30.11zm61.39 -96.14c-6.17,0 -9.26,3.09 -9.26,9.27l0 12.74 39.38 0 0 -12.74c0,-6.18 -3.09,-9.27 -9.27,-9.27l-20.85 0zm66.04 93.83c-29.82,3.09 -56.85,4.63 -81.09,4.63 -10.51,0 -18.92,-3.16 -25.26,-9.5 -6.33,-6.33 -9.5,-14.75 -9.5,-25.25l0 -55.6c0,-11.59 3.29,-20.66 9.85,-27.23 6.57,-6.56 15.64,-9.84 27.22,-9.84l46.34 0c11.58,0 20.66,3.28 27.22,9.84 6.57,6.57 9.85,15.64 9.85,27.23l0 42.86 -79.93 0 0 9.26c0,2.32 0.77,4.25 2.31,5.8 1.55,1.54 3.48,2.31 5.8,2.31 15.29,0 37.68,-1.15 67.19,-3.47l0 28.96zm134.37 0c-28.88,3.09 -54.37,4.63 -76.45,4.63 -10.51,0 -18.92,-3.16 -25.26,-9.5 -6.33,-6.33 -9.5,-14.75 -9.5,-25.25l0 -53.28c0,-11.59 3.28,-20.66 9.85,-27.23 6.57,-6.56 15.64,-9.84 27.22,-9.84l74.14 0 0 31.27 -61.4 0c-6.17,0 -9.26,3.09 -9.26,9.27l0 45.18c0,2.31 0.77,4.25 2.31,5.79 1.55,1.54 3.48,2.32 5.8,2.32 13.9,0 34.75,-1.16 62.55,-3.48l0 30.12zm59.08 -118.16c14.98,-3.09 28.1,-4.63 39.38,-4.63l10.43 0c10.5,0 18.92,3.16 25.25,9.5 6.33,6.33 9.5,14.75 9.5,25.25l0 90.35 -40.54 0 0 -85.71c0,-2.32 -0.78,-4.25 -2.32,-5.8 -1.55,-1.54 -3.48,-2.32 -5.79,-2.32l-8.11 0c-5.87,0 -11.24,0.31 -16.1,0.93 -4.87,0.62 -8.77,1.08 -11.7,1.39l0 91.51 -40.55 0 0 -162.17 40.55 0 0 41.7z"/>
     </g>
    </g>
   </g>
  </g>
 </g>
</svg>